<?xml version="1.0" standalone="no"?>
<!DOCTYPE svg PUBLIC "-//W3C//DTD SVG 20010904//EN"
 "http://www.w3.org/TR/2001/REC-SVG-20010904/DTD/svg10.dtd">
<svg version="1.0" xmlns="http://www.w3.org/2000/svg"
 width="251.000000pt" height="250.000000pt" viewBox="0 0 251.000000 250.000000"
 preserveAspectRatio="xMidYMid meet">

<g transform="translate(0.000000,250.000000) scale(0.100000,-0.100000)"
fill="#000000" stroke="none">
<path d="M1104 2486 c-100 -19 -136 -32 -237 -84 -148 -75 -284 -219 -358
-375 -54 -116 -71 -205 -72 -382 -2 -148 0 -163 20 -202 44 -81 120 -123 225
-123 l55 0 7 -42 c12 -74 64 -166 137 -243 61 -64 69 -77 69 -112 l0 -39 -117
-11 c-129 -13 -229 -42 -320 -94 -204 -117 -348 -338 -369 -570 l-7 -69 -68 0
-69 0 0 -70 0 -70 1243 0 c953 0 1246 3 1255 12 16 16 16 100 0 116 -7 7 -40
12 -79 12 l-66 0 -7 63 c-20 199 -118 383 -265 501 -134 107 -246 152 -423
169 l-118 11 0 39 c0 35 8 48 69 112 72 76 113 147 133 231 l12 52 71 4 c107
7 176 50 210 130 24 58 21 331 -4 430 -73 284 -302 517 -577 589 -102 26 -257
33 -350 15z m354 -169 c226 -80 389 -264 437 -495 8 -37 13 -67 12 -68 -1 -1
-35 2 -76 5 l-74 6 -16 60 c-48 172 -183 307 -360 359 -67 20 -198 21 -267 2
-174 -46 -317 -188 -365 -361 l-16 -60 -74 -5 c-41 -3 -75 -6 -76 -5 -10 4 35
157 65 220 87 180 247 311 440 360 93 24 279 15 370 -18z m-120 -271 c71 -19
132 -57 180 -111 77 -87 101 -176 102 -367 l0 -98 -190 0 c-201 0 -230 -5
-249 -47 -16 -36 -14 -51 14 -78 24 -25 25 -25 219 -25 l195 0 -9 -30 c-15
-53 -63 -130 -103 -167 -22 -19 -69 -49 -106 -66 -56 -27 -77 -31 -146 -31
-69 0 -90 4 -146 31 -86 40 -138 88 -180 165 l-34 63 -3 233 c-4 266 3 303 66
388 51 66 111 110 185 133 74 24 134 26 205 7z m-610 -503 l3 -73 -55 0 c-47
0 -57 4 -75 26 -49 62 -1 127 89 121 l35 -2 3 -72z m1141 62 c47 -24 55 -74
19 -112 -17 -18 -32 -23 -75 -23 l-53 0 0 75 0 75 40 0 c23 0 54 -7 69 -15z
m-624 -720 c50 0 102 3 118 8 l27 7 0 -71 c0 -112 -50 -171 -145 -171 -95 0
-145 59 -145 171 l0 71 28 -7 c15 -5 68 -8 117 -8z m-265 -206 c28 -58 87
-116 148 -143 l42 -19 0 -87 c0 -105 19 -140 75 -140 56 0 75 35 75 140 l0 87
49 23 c62 29 114 81 141 143 l21 47 77 0 c202 -1 390 -103 502 -273 43 -65 86
-190 93 -269 l5 -48 -149 0 -149 0 0 119 c0 105 -2 121 -21 145 -28 36 -80 36
-108 0 -19 -24 -21 -40 -21 -145 l0 -119 -515 0 -515 0 0 119 c0 105 -2 121
-21 145 -28 36 -80 36 -108 0 -19 -24 -21 -40 -21 -145 l0 -119 -145 0 -145 0
0 53 c0 61 43 191 84 256 68 106 180 199 295 242 76 28 122 37 212 38 l76 1
23 -51z"/>
</g>
</svg>
