<?xml version="1.0" standalone="no"?>
<!DOCTYPE svg PUBLIC "-//W3C//DTD SVG 20010904//EN"
 "http://www.w3.org/TR/2001/REC-SVG-20010904/DTD/svg10.dtd">
<svg version="1.0" xmlns="http://www.w3.org/2000/svg"
 width="251.000000pt" height="250.000000pt" viewBox="0 0 251.000000 250.000000"
 preserveAspectRatio="xMidYMid meet">

<g transform="translate(0.000000,250.000000) scale(0.100000,-0.100000)"
fill="#000000" stroke="none">
<path d="M2150 2487 c-45 -15 -119 -88 -126 -127 -4 -16 -7 -30 -8 -30 -1 0
-19 9 -41 20 -47 24 -146 28 -164 6 -16 -19 -3 -90 23 -128 34 -50 90 -89 135
-95 l41 -6 0 -63 0 -63 -42 19 c-51 23 -216 28 -236 8 -17 -17 -14 -67 7 -114
35 -78 119 -124 225 -124 l46 0 0 -70 c0 -38 -2 -70 -4 -70 -2 0 -25 12 -51
26 -39 22 -64 28 -139 32 -110 5 -136 -4 -136 -50 0 -61 23 -112 75 -163 57
-58 102 -75 194 -75 l61 0 0 -85 0 -85 -109 0 c-141 0 -141 0 -141 -125 0
-102 10 -125 56 -125 22 0 24 -4 24 -43 0 -31 -5 -45 -20 -55 -18 -11 -20 -23
-20 -107 0 -82 3 -98 20 -115 13 -13 20 -33 20 -60 0 -37 -2 -40 -28 -40 -42
0 -52 -17 -52 -90 0 -53 -4 -69 -20 -83 -17 -15 -20 -29 -20 -115 0 -107 6
-122 52 -122 27 0 28 -2 28 -45 l0 -45 -145 0 -145 0 0 45 c0 43 1 45 28 45
46 0 52 15 52 127 0 116 -4 123 -79 123 -41 0 -41 0 -41 38 0 25 7 43 20 55
16 14 20 29 20 84 0 57 3 70 20 81 18 11 20 23 20 111 0 132 1 131 -141 131
l-109 0 0 185 0 185 48 0 c72 0 143 25 179 62 54 56 80 147 51 176 -20 20
-185 15 -235 -8 l-43 -19 0 42 c-1 87 -68 175 -151 197 -86 23 -106 -2 -96
-116 9 -96 49 -155 130 -189 36 -15 37 -16 37 -70 l0 -54 -36 24 c-46 31 -78
37 -194 33 l-95 -3 -3 -35 c-12 -126 97 -233 252 -247 l76 -6 0 -78 0 -79
-106 0 c-140 0 -144 -2 -144 -93 0 -61 -3 -74 -20 -85 -17 -10 -20 -23 -20
-86 0 -65 -2 -74 -20 -79 -18 -5 -20 -14 -20 -116 0 -125 4 -131 79 -131 l41
0 0 -40 c0 -37 -2 -40 -28 -40 -43 0 -52 -17 -52 -97 l0 -73 -105 0 -105 0 0
43 c0 31 5 45 20 55 18 11 20 23 20 111 0 109 -10 131 -56 131 -23 0 -24 3
-24 61 0 98 -1 99 -135 99 l-115 0 0 85 0 85 54 0 c124 0 209 67 231 181 11
60 -10 71 -124 67 -64 -2 -107 -9 -128 -20 -37 -18 -38 -18 -47 35 -11 58 -75
123 -142 143 -40 11 -58 12 -74 4 -18 -10 -20 -20 -20 -131 0 -99 3 -126 19
-158 23 -45 81 -98 116 -107 24 -6 25 -9 25 -95 l0 -89 -115 0 c-137 0 -135 2
-135 -124 0 -95 16 -126 65 -126 22 0 25 -4 25 -38 0 -26 -6 -41 -20 -49 -16
-10 -20 -26 -22 -85 l-3 -73 -62 -3 -63 -3 0 -39 0 -40 1245 0 1245 0 0 40 0
39 -57 3 -58 3 -3 70 c-3 79 -13 95 -53 95 -27 0 -29 3 -29 40 0 29 5 42 20
50 17 9 20 21 20 85 l0 75 29 0 c47 0 61 30 61 128 0 75 -2 85 -25 108 -33 33
-33 79 0 110 23 21 25 31 25 103 0 108 -10 131 -55 131 l-35 0 0 73 c0 43 -5
78 -12 85 -8 8 -50 12 -125 12 l-113 0 0 124 0 123 78 6 c92 6 144 28 192 83
42 48 60 92 60 148 0 54 -5 56 -118 56 -89 -1 -149 -16 -181 -44 -10 -9 -21
-16 -25 -16 -4 0 -6 33 -4 73 l3 72 75 6 c41 3 89 13 106 22 64 33 110 115
102 182 l-3 30 -102 3 c-74 2 -112 -1 -139 -13 -20 -8 -38 -15 -40 -15 -2 0
-4 18 -4 40 0 36 3 40 43 58 52 23 102 79 116 129 6 21 11 64 11 95 0 84 -26
102 -110 75z m30 -102 c0 -38 -25 -90 -51 -109 -32 -22 -39 -20 -39 8 0 37 17
74 46 101 34 32 44 31 44 0z m-212 -129 c20 -19 33 -38 29 -42 -11 -12 -77 26
-95 54 -13 20 -13 22 7 22 12 0 38 -15 59 -34z m322 -224 c0 -17 -31 -50 -58
-61 -16 -7 -53 -11 -83 -9 l-54 3 37 38 c34 35 40 37 97 37 34 0 61 -3 61 -8z
m-350 -87 c27 -14 60 -51 60 -67 0 -14 -78 -9 -119 8 -34 13 -71 49 -71 69 0
12 103 4 130 -10z m400 -243 c0 -25 -62 -91 -99 -106 -53 -21 -141 -22 -141
-1 0 22 60 86 95 101 33 15 145 19 145 6z m-1173 -59 c40 -27 74 -133 42 -133
-20 0 -66 58 -73 91 -12 64 -9 68 31 42z m738 -32 c43 -19 95 -73 95 -97 0
-20 -102 -19 -147 2 -37 18 -83 71 -83 97 0 24 82 22 135 -2z m-405 -162 c0
-20 -58 -66 -91 -73 -39 -8 -99 -8 -99 0 0 17 25 47 53 64 35 22 137 28 137 9z
m-370 -178 c32 -17 80 -72 80 -92 0 -13 -118 -11 -143 2 -33 17 -67 51 -83 82
l-15 27 63 0 c42 0 75 -6 98 -19z m1130 -147 l0 -45 -42 3 c-35 2 -42 6 -40
21 2 14 -5 17 -43 17 -38 0 -45 -3 -45 -20 0 -17 -7 -20 -40 -20 -33 0 -40 3
-40 20 0 17 -7 20 -40 20 -33 0 -40 -3 -40 -20 0 -17 -7 -20 -45 -20 l-45 0 0
45 0 45 210 0 210 0 0 -46z m-1969 -64 c33 -18 49 -64 49 -145 0 -73 -1 -75
-21 -65 -40 22 -59 70 -59 148 0 39 3 72 6 72 3 0 14 -5 25 -10z m2051 -100
l4 -40 -43 0 c-36 0 -43 3 -43 20 0 17 -7 20 -40 20 -33 0 -40 -3 -40 -20 0
-17 -7 -20 -45 -20 -38 0 -45 3 -45 20 0 17 -7 20 -40 20 -33 0 -40 -3 -40
-20 0 -17 -7 -20 -40 -20 l-40 0 0 40 0 40 204 0 204 0 4 -40z m-1724 -62
c-27 -41 -65 -61 -123 -66 -62 -5 -72 8 -32 46 31 29 64 41 121 41 48 1 48 1
34 -21z m852 -108 l0 -40 -45 0 c-38 0 -45 3 -45 20 0 17 -7 20 -40 20 -33 0
-40 -3 -40 -20 0 -17 -7 -20 -40 -20 -33 0 -40 3 -40 20 0 17 -7 20 -40 20
-33 0 -40 -3 -40 -20 0 -17 -7 -20 -45 -20 l-45 0 0 40 0 40 210 0 210 0 0
-40z m830 0 l0 -40 -40 0 c-33 0 -40 3 -40 20 0 17 -7 20 -40 20 -33 0 -40 -3
-40 -20 0 -17 -7 -20 -45 -20 -38 0 -45 3 -45 20 0 17 -7 20 -40 20 -33 0 -40
-3 -40 -20 0 -17 -7 -20 -45 -20 l-45 0 0 40 0 40 210 0 210 0 0 -40z m-870
-165 l0 -45 -45 0 c-38 0 -45 3 -45 20 0 17 -7 20 -40 20 -33 0 -40 -3 -40
-20 0 -17 -7 -20 -40 -20 -33 0 -40 3 -40 20 0 17 -7 20 -45 20 -38 0 -45 -3
-45 -20 0 -17 -7 -20 -40 -20 l-40 0 0 45 0 45 210 0 210 0 0 -45z m913 0 c0
-40 0 -40 -41 -43 -37 -3 -42 -1 -42 17 0 18 -6 21 -40 21 -33 0 -40 -3 -40
-20 0 -17 -7 -20 -45 -20 -38 0 -45 3 -45 20 0 17 -7 20 -40 20 -33 0 -40 -3
-40 -20 0 -17 -7 -20 -40 -20 l-40 0 0 45 0 45 207 -2 206 -3 0 -40z m-1753
-165 l0 -40 -40 0 c-33 0 -40 3 -40 20 0 17 -7 20 -40 20 -33 0 -40 -3 -40
-20 0 -17 -7 -20 -45 -20 -38 0 -45 3 -45 20 0 17 -7 20 -40 20 -33 0 -40 -3
-40 -20 0 -17 -7 -20 -40 -20 l-40 0 0 40 0 40 205 0 205 0 0 -40z m800 0 l0
-40 -45 0 c-38 0 -45 3 -45 20 0 17 -7 20 -40 20 -33 0 -40 -3 -40 -20 0 -17
-7 -20 -45 -20 -38 0 -45 3 -45 20 0 17 -7 20 -40 20 -33 0 -40 -3 -40 -20 0
-17 -7 -20 -40 -20 l-40 0 0 40 0 40 210 0 210 0 0 -40z m870 0 l0 -40 -44 0
c-36 0 -44 3 -42 18 1 13 -7 17 -39 17 -32 0 -40 -4 -39 -17 2 -15 -6 -18 -42
-18 -37 0 -44 3 -44 20 0 17 -7 20 -40 20 -33 0 -40 -3 -40 -20 0 -17 -7 -20
-45 -20 l-45 0 0 40 0 40 210 0 210 0 0 -40z m-1580 -170 l0 -40 -45 0 c-38 0
-45 3 -45 20 0 17 -7 20 -40 20 -33 0 -40 -3 -40 -20 0 -17 -7 -20 -40 -20
-33 0 -40 3 -40 20 0 17 -7 20 -45 20 -38 0 -45 -3 -45 -20 0 -17 -7 -20 -40
-20 l-40 0 0 40 0 40 210 0 210 0 0 -40z m830 0 l0 -40 -40 0 c-33 0 -40 3
-40 20 0 17 -7 20 -45 20 -38 0 -45 -3 -45 -20 0 -17 -7 -20 -40 -20 -33 0
-40 3 -40 20 0 17 -7 20 -40 20 -33 0 -40 -3 -40 -20 0 -17 -7 -20 -45 -20
l-45 0 0 40 0 40 210 0 210 0 0 -40z m710 0 l0 -40 -45 0 c-38 0 -45 3 -45 20
0 17 -7 20 -40 20 -33 0 -40 -3 -40 -20 0 -17 -7 -20 -40 -20 -33 0 -40 3 -40
20 0 17 -7 20 -40 20 -33 0 -40 -3 -40 -20 0 -17 -7 -20 -45 -20 l-45 0 0 40
0 40 210 0 210 0 0 -40z m-1585 -165 c0 -40 0 -40 -42 -43 -38 -3 -43 -1 -43
17 0 18 -6 21 -40 21 -33 0 -40 -3 -40 -20 0 -17 -7 -20 -41 -20 -32 0 -42 4
-46 20 -4 16 -14 20 -44 20 -32 0 -39 -3 -39 -20 0 -17 -7 -20 -40 -20 l-40 0
0 45 0 45 208 -2 207 -3 0 -40z m795 0 l0 -45 -45 0 c-38 0 -45 3 -45 20 0 17
-7 20 -40 20 -33 0 -40 -3 -40 -20 0 -17 -7 -20 -40 -20 -33 0 -40 3 -40 20 0
17 -7 20 -45 20 -38 0 -45 -3 -45 -20 0 -17 -7 -20 -40 -20 l-40 0 0 45 0 45
210 0 210 0 0 -45z m870 0 l0 -45 -40 0 c-33 0 -40 3 -40 20 0 17 -7 20 -39
20 -30 0 -40 -4 -44 -20 -4 -16 -14 -20 -46 -20 -34 0 -41 3 -41 20 0 17 -7
20 -40 20 -34 0 -40 -3 -40 -21 0 -18 -5 -20 -42 -17 -39 3 -43 6 -46 31 -7
58 -10 57 213 57 l205 0 0 -45z"/>
</g>
</svg>
