<svg xmlns="http://www.w3.org/2000/svg" viewBox="0 0 269.33 269.06"><defs><style>.cls-1{fill:#0d1984;}</style></defs><title>Asset 1</title><g id="Layer_2" data-name="Layer 2"><g id="Layer_1-2" data-name="Layer 1"><path class="cls-1" d="M191.4,256.57a133.52,133.52,0,0,1-44.59,12,138.94,138.94,0,0,1-26.41-.21l-.65-.06-1.34-.16v-82a32.51,32.51,0,0,1,.16-3.87c.85-9.67,6.32-34.11,39.64-34.6,2,0,3.72,0,5.26.07h24.26L175.5,176.53H158.44a13.21,13.21,0,0,0-11.63,11.23v45.42h0q4.91-.6,9.65-1.66A99.51,99.51,0,0,0,132.63,34.93C78.49,36,34.87,80.81,35.16,135a99.27,99.27,0,0,0,35,75.23h0V171.25h0A70.14,70.14,0,0,1,83.8,133.42q1.78-2.44,3.8-4.73a70.52,70.52,0,0,1,46.73-23.85c.92-.09,1.84-.16,2.77-.21h69l-10.8,25.41-1.43,3.37H138.47A41.61,41.61,0,0,0,118,140.09a42.53,42.53,0,0,0-8.83,7.66A41.81,41.81,0,0,0,99,172.4h0v91.89a133.54,133.54,0,0,1-28.79-11.63c-1.53-.84-3-1.7-4.54-2.6C-63.36,168.74,12.5-27.29,165.57,3.19c45.67,10.15,91.2,56.48,100.74,102.29C280,171.45,245.46,231.42,191.4,256.57Z"/></g></g></svg>