<?xml version="1.0" standalone="no"?>
<!DOCTYPE svg PUBLIC "-//W3C//DTD SVG 20010904//EN"
 "http://www.w3.org/TR/2001/REC-SVG-20010904/DTD/svg10.dtd">
<svg version="1.0" xmlns="http://www.w3.org/2000/svg"
 width="251.000000pt" height="250.000000pt" viewBox="0 0 251.000000 250.000000"
 preserveAspectRatio="xMidYMid meet">

<g transform="translate(0.000000,250.000000) scale(0.100000,-0.100000)"
fill="#000000" stroke="none">
<path d="M1125 2455 c-71 -24 -308 -100 -525 -170 -245 -78 -400 -132 -408
-143 -11 -14 -12 -108 -9 -472 3 -432 4 -459 25 -535 47 -171 118 -309 220
-431 66 -79 804 -704 831 -704 21 0 49 19 126 85 33 28 186 157 340 287 154
129 307 264 341 299 150 159 245 364 273 594 6 51 11 255 11 471 0 349 -2 384
-17 403 -13 16 -97 47 -298 112 -154 49 -386 124 -515 166 -129 41 -242 77
-250 79 -8 1 -73 -17 -145 -41z m628 -237 l479 -153 -4 -410 c-4 -407 -5 -411
-31 -509 -15 -55 -45 -136 -67 -180 -74 -150 -134 -212 -499 -519 -185 -155
-343 -288 -353 -295 -14 -11 -59 23 -357 274 -188 157 -360 307 -383 333 -107
120 -187 279 -219 436 -16 79 -19 139 -19 480 l0 390 268 85 c147 47 357 115
467 152 110 36 209 67 220 67 11 1 235 -67 498 -151z"/>
<path d="M1206 2235 c-3 -9 -6 -29 -6 -44 0 -26 -3 -29 -49 -34 -133 -16 -296
-96 -406 -199 -149 -139 -235 -334 -235 -535 0 -107 7 -113 140 -113 l96 0 68
-45 c57 -37 77 -45 115 -45 50 0 74 12 133 68 l37 35 50 -44 50 -44 1 -260 c0
-143 5 -278 10 -299 30 -133 187 -186 291 -99 56 47 89 159 57 191 -16 16 -80
16 -96 0 -7 -7 -12 -26 -12 -43 0 -36 -7 -48 -37 -64 -31 -16 -41 -14 -68 14
l-25 24 0 266 0 265 41 38 c65 59 66 59 113 14 53 -51 75 -62 126 -62 46 0 67
9 125 54 37 30 44 31 153 36 134 6 142 12 142 99 0 251 -136 500 -345 633 -92
59 -162 87 -265 108 l-85 17 -5 39 -5 39 -51 3 c-40 2 -53 -1 -58 -13z m189
-200 c257 -54 472 -287 501 -545 l7 -60 -67 0 c-75 0 -111 -12 -186 -64 l-53
-36 -47 44 c-87 81 -160 83 -235 6 -22 -22 -44 -40 -50 -40 -6 0 -28 18 -50
40 -76 78 -144 78 -231 -1 l-55 -50 -48 36 c-69 50 -111 65 -186 65 l-65 0 0
38 c0 57 26 149 67 232 60 125 197 249 333 304 112 45 244 56 365 31z"/>
<path d="M1254 1998 c-13 -20 -7 -100 7 -109 8 -5 30 -9 50 -9 133 0 290 -104
369 -244 18 -31 33 -56 35 -56 15 0 95 43 95 52 0 5 -15 38 -32 72 -42 78
-146 182 -223 223 -101 53 -285 97 -301 71z"/>
</g>
</svg>
