<?xml version="1.0" standalone="no"?>
<!DOCTYPE svg PUBLIC "-//W3C//DTD SVG 20010904//EN"
 "http://www.w3.org/TR/2001/REC-SVG-20010904/DTD/svg10.dtd">
<svg version="1.0" xmlns="http://www.w3.org/2000/svg"
 width="251.000000pt" height="250.000000pt" viewBox="0 0 251.000000 250.000000"
 preserveAspectRatio="xMidYMid meet">

<g transform="translate(0.000000,250.000000) scale(0.100000,-0.100000)"
fill="#000000" stroke="none">
<path d="M475 2491 c-77 -19 -146 -81 -164 -148 -6 -21 -11 -62 -11 -90 l0
-53 -46 0 c-118 0 -210 -59 -240 -154 -47 -149 60 -286 223 -286 l63 0 0 -149
0 -149 -78 -3 c-65 -3 -86 -9 -120 -31 -83 -55 -121 -166 -87 -254 36 -96 101
-140 221 -151 l64 -6 0 -143 0 -144 -48 0 c-116 0 -207 -58 -238 -153 -49
-148 59 -286 224 -287 l62 0 0 -52 c0 -75 16 -124 56 -168 68 -75 8 -70 921
-70 784 0 822 1 876 19 135 47 233 133 296 263 90 181 70 380 -53 541 l-35 47
-3 732 c-3 729 -3 733 -25 773 -24 46 -54 75 -103 101 -33 18 -76 19 -880 21
-465 1 -858 -2 -875 -6z m1715 -161 c19 -19 20 -35 22 -480 4 -785 4 -875 -7
-873 -5 1 -30 10 -55 19 -61 22 -192 29 -263 15 -229 -48 -408 -269 -407 -504
0 -110 46 -238 117 -324 l34 -43 -566 0 c-350 0 -573 4 -585 10 -22 12 -40 61
-40 111 0 34 4 41 37 58 48 24 67 45 92 101 45 98 11 213 -80 271 l-49 32 0
154 0 153 38 24 c83 52 118 122 109 214 -7 67 -40 119 -102 162 l-45 31 0 154
0 154 35 17 c69 32 115 114 115 200 -1 72 -54 155 -122 190 -23 12 -28 21 -28
54 0 47 15 91 37 108 13 9 200 12 855 12 825 0 838 0 858 -20z m-1772 -297
c34 -29 37 -66 9 -99 -25 -29 -27 -29 -130 -29 -121 0 -147 12 -147 72 0 60
25 73 144 73 84 0 108 -3 124 -17z m-14 -724 c51 -23 55 -103 7 -128 -11 -6
-64 -11 -118 -11 -115 0 -143 14 -143 75 0 57 34 75 141 75 48 0 99 -5 113
-11z m1718 -456 c111 -43 202 -145 228 -254 43 -177 -61 -377 -228 -439 -81
-31 -204 -26 -284 12 -145 68 -230 228 -207 393 25 184 199 324 385 311 33 -3
81 -13 106 -23z m-1699 -290 c29 -33 31 -68 4 -99 -25 -29 -27 -29 -130 -29
-121 0 -147 12 -147 72 0 61 24 73 148 73 91 0 111 -3 125 -17z"/>
<path d="M1093 1918 l-133 -132 -68 67 c-55 55 -73 67 -100 67 -39 0 -72 -30
-72 -67 0 -37 204 -243 240 -243 17 0 69 45 194 169 150 150 169 173 169 201
0 22 -7 39 -22 52 -47 37 -66 27 -208 -114z"/>
<path d="M1500 1878 c-26 -28 -26 -58 1 -92 l20 -26 248 0 c282 0 291 2 291
69 0 70 -4 71 -288 71 -246 0 -252 0 -272 -22z"/>
<path d="M1093 1328 l-132 -132 -76 73 c-66 64 -78 72 -103 67 -15 -4 -35 -16
-44 -28 -36 -41 -24 -65 86 -176 143 -145 124 -148 333 61 143 142 166 170
166 196 0 41 -28 71 -67 71 -27 0 -51 -19 -163 -132z"/>
<path d="M1523 1310 c-47 -19 -56 -78 -18 -115 l24 -25 236 0 c277 0 294 4
295 76 0 19 -8 38 -21 50 -19 17 -41 19 -258 21 -130 1 -246 -2 -258 -7z"/>
<path d="M1230 868 c-14 -5 -80 -63 -147 -130 l-122 -122 -71 67 c-79 75 -105
82 -145 42 -46 -45 -36 -68 78 -182 143 -143 128 -145 325 50 84 83 160 164
168 179 29 56 -26 118 -86 96z"/>
<path d="M1945 705 c-23 -22 -25 -32 -25 -118 0 -80 3 -98 21 -121 20 -25 24
-26 125 -26 91 0 107 3 124 20 50 50 9 117 -75 122 -48 3 -50 4 -47 31 5 42
-16 93 -44 106 -37 16 -52 14 -79 -14z"/>
</g>
</svg>
