<?xml version="1.0" standalone="no"?>
<!DOCTYPE svg PUBLIC "-//W3C//DTD SVG 20010904//EN"
 "http://www.w3.org/TR/2001/REC-SVG-20010904/DTD/svg10.dtd">
<svg version="1.0" xmlns="http://www.w3.org/2000/svg"
 width="251.000000pt" height="250.000000pt" viewBox="0 0 251.000000 250.000000"
 preserveAspectRatio="xMidYMid meet">

<g transform="translate(0.000000,250.000000) scale(0.100000,-0.100000)"
fill="#000000" stroke="none">
<path d="M798 2484 c-80 -19 -152 -57 -211 -112 -85 -80 -125 -159 -136 -271
l-6 -64 -55 -14 c-200 -50 -350 -206 -383 -397 -22 -130 22 -275 118 -383 l46
-52 -27 -73 c-22 -60 -27 -91 -28 -168 -1 -135 34 -231 126 -342 35 -42 148
-126 189 -141 12 -4 18 -23 21 -72 4 -49 15 -86 42 -140 123 -248 465 -329
699 -166 l57 40 57 -40 c97 -68 229 -98 348 -79 131 21 254 94 321 194 39 58
74 159 74 216 0 36 3 40 57 70 124 70 220 190 258 324 26 91 18 242 -18 320
l-27 59 49 52 c248 263 114 675 -252 775 l-62 17 -7 69 c-33 302 -385 482
-675 345 -32 -15 -73 -40 -90 -55 l-33 -28 -37 30 c-113 89 -271 122 -415 86z
m939 -177 c68 -35 129 -106 149 -174 23 -78 17 -92 -45 -124 -72 -37 -115 -81
-142 -143 -75 -173 47 -363 246 -383 48 -5 56 -3 79 20 55 55 21 119 -69 132
-39 5 -57 15 -87 45 -51 50 -53 102 -7 155 42 48 94 61 178 46 174 -32 301
-165 301 -315 0 -115 -38 -189 -137 -267 -71 -56 -79 -89 -38 -149 137 -197
49 -460 -185 -551 -81 -32 -93 -50 -86 -124 10 -91 -13 -155 -78 -220 -72 -72
-143 -98 -251 -93 -97 5 -161 34 -223 102 -78 85 -105 84 -190 -3 -70 -71
-141 -101 -237 -101 -150 0 -287 102 -310 233 l-7 38 38 -7 c48 -7 156 12 203
36 76 39 120 118 121 216 0 169 -87 271 -243 282 -61 4 -70 2 -92 -18 -30 -28
-32 -69 -7 -100 13 -17 35 -25 77 -31 83 -11 109 -39 110 -119 0 -48 -4 -64
-22 -82 -29 -28 -119 -36 -216 -17 -169 31 -296 181 -297 349 0 82 11 121 55
194 54 90 49 104 -63 193 -61 49 -102 138 -102 223 0 88 22 149 75 208 81 90
233 147 326 122 49 -13 96 -56 103 -94 4 -14 8 -37 11 -51 6 -30 57 -59 88
-49 43 13 57 34 57 89 0 99 -76 203 -178 242 l-44 17 5 52 c7 69 36 122 97
177 63 56 121 77 219 77 96 0 175 -35 238 -103 78 -85 96 -86 175 -7 33 32 80
69 105 81 88 43 210 41 300 -4z"/>
<path d="M1292 1710 c-12 -5 -27 -20 -32 -32 -5 -13 -46 -180 -90 -371 -74
-323 -78 -351 -65 -377 15 -30 33 -40 70 -40 55 0 61 15 145 379 44 189 80
359 80 377 0 23 -7 38 -26 53 -29 23 -46 25 -82 11z"/>
<path d="M862 1543 c-11 -10 -57 -61 -101 -113 -108 -127 -108 -127 11 -265
50 -59 102 -111 115 -116 49 -18 112 35 99 85 -3 14 -34 57 -67 96 -54 62 -60
72 -48 88 8 9 38 45 67 80 59 70 65 100 27 137 -29 30 -74 33 -103 8z"/>
<path d="M1535 1535 c-44 -43 -36 -65 68 -189 l39 -45 -66 -76 c-36 -42 -66
-84 -66 -95 0 -53 50 -96 99 -83 11 3 55 46 99 97 97 113 112 135 112 163 0
20 -88 134 -173 226 -34 35 -79 36 -112 2z"/>
</g>
</svg>
