<?xml version="1.0" standalone="no"?>
<!DOCTYPE svg PUBLIC "-//W3C//DTD SVG 20010904//EN"
 "http://www.w3.org/TR/2001/REC-SVG-20010904/DTD/svg10.dtd">
<svg version="1.0" xmlns="http://www.w3.org/2000/svg"
 width="251.000000pt" height="250.000000pt" viewBox="0 0 251.000000 250.000000"
 preserveAspectRatio="xMidYMid meet">

<g transform="translate(0.000000,250.000000) scale(0.100000,-0.100000)"
fill="#000000" stroke="none">
<path d="M1135 2494 c-478 -52 -883 -372 -1043 -824 -51 -146 -66 -238 -66
-410 0 -172 15 -264 66 -410 146 -414 490 -713 928 -806 116 -24 352 -25 473
-1 500 100 885 485 984 984 23 119 23 347 0 466 -97 490 -467 868 -957 978
-84 18 -303 32 -385 23z m387 -207 c184 -48 334 -134 475 -270 200 -194 306
-428 320 -703 15 -307 -85 -569 -300 -791 -218 -225 -504 -337 -815 -320 -268
15 -510 125 -699 320 -136 140 -220 289 -270 475 -24 86 -27 116 -27 262 0
146 3 176 27 262 51 193 147 356 290 495 161 156 335 246 554 288 118 22 321
14 445 -18z"/>
<path d="M1176 1310 c-245 -296 -446 -541 -446 -545 0 -3 54 -5 119 -5 l120 0
440 540 c243 296 441 542 441 545 0 3 -51 5 -114 5 l-114 0 -446 -540z"/>
<path d="M845 1821 c-154 -71 -150 -280 7 -346 47 -19 89 -19 136 0 160 67
160 283 0 350 -49 20 -94 19 -143 -4z"/>
<path d="M1595 1121 c-154 -71 -150 -280 7 -346 47 -19 89 -19 136 0 160 67
160 283 0 350 -49 20 -94 19 -143 -4z"/>
</g>
</svg>
